<?xml version="1.0" encoding="UTF-8"?>
<svg version="1.1" xmlns="http://www.w3.org/2000/svg" width="1376" height="768">
<path d="M0 0 C454.08 0 908.16 0 1376 0 C1376 253.44 1376 506.88 1376 768 C921.92 768 467.84 768 0 768 C0 514.56 0 261.12 0 0 Z " fill="#FEFEFE" transform="translate(0,0)"/>
<path d="M0 0 C1.07893021 0.00648056 1.07893021 0.00648056 2.17965698 0.01309204 C12.90160655 0.08846577 23.1550093 0.58247286 33.5625 3.375 C34.21347656 3.54660645 34.86445313 3.71821289 35.53515625 3.89501953 C52.88374339 8.57061419 76.29749554 16.74721727 88.5625 30.375 C88.5625 31.695 88.5625 33.015 88.5625 34.375 C86.48238672 36.04931083 84.59309069 37.35186498 82.3125 38.6875 C81.43271484 39.2453418 81.43271484 39.2453418 80.53515625 39.81445312 C76.28671237 42.37784005 76.28671237 42.37784005 73.5703125 42.3671875 C70.48248216 40.84129468 67.59376745 39.02680592 64.6875 37.1875 C38.28432617 20.97992926 5.85494382 14.47048045 -24.6328125 21.34765625 C-45.08518881 26.87021782 -63.52756682 35.13254563 -79.4375 49.375 C-79.99131348 49.86838867 -80.54512695 50.36177734 -81.11572266 50.87011719 C-97.28033783 65.53115616 -108.91487044 84.56622081 -115.4375 105.375 C-115.71207031 106.21804688 -115.98664063 107.06109375 -116.26953125 107.9296875 C-126.07230257 140.47681986 -120.12311196 175.22071258 -104.34814453 204.69848633 C-100.36435576 211.83516795 -95.70484506 218.13122532 -90.4375 224.375 C-89.84453125 225.11878906 -89.2515625 225.86257813 -88.640625 226.62890625 C-82.90033936 233.61292045 -75.66297621 239.01088768 -68.4375 244.375 C-69.81972525 248.52167574 -72.63848038 249.62947826 -76.25 251.6875 C-76.87970703 252.07228516 -77.50941406 252.45707031 -78.15820312 252.85351562 C-82.80511201 255.53048622 -82.80511201 255.53048622 -85.56640625 254.8515625 C-86.18386719 254.36429688 -86.80132812 253.87703125 -87.4375 253.375 C-88.64792969 252.49521484 -88.64792969 252.49521484 -89.8828125 251.59765625 C-118.77466441 228.30728583 -135.97837318 193.51509162 -139.96484375 156.87109375 C-143.48475596 118.98027411 -133.06291484 81.84023198 -108.7890625 52.2421875 C-81.31216231 20.02177078 -42.80775005 -0.49132733 0 0 Z " fill="#242F3B" transform="translate(283.4375,241.625)"/>
<path d="M0 0 C3.89423016 2.13800871 6.65114833 4.23233331 9 8 C9.86120395 12.77153538 9.70334178 16.79427124 7.25 21 C3.05949714 24.72489143 -0.3128443 25.44181007 -5.8125 25.32421875 C-9.09118104 24.83827138 -10.7650725 23.37037765 -13 21 C-13.99 19.515 -13.99 19.515 -15 18 C-36.66158669 21.09451238 -56.73253041 38.60743051 -70 55 C-70.73605469 55.89847656 -71.47210938 56.79695313 -72.23046875 57.72265625 C-95.47408475 86.95270436 -110.65048801 122.06669141 -127.1496582 155.31686401 C-134.93398489 170.99339568 -134.93398489 170.99339568 -138.375 177.0625 C-138.74310791 177.71259033 -139.11121582 178.36268066 -139.49047852 179.0324707 C-148.76158899 195.16876154 -159.51792223 210.12971399 -173 223 C-173.83015625 223.83917969 -174.6603125 224.67835938 -175.515625 225.54296875 C-190.33904343 240.20323634 -211.80654142 251.14799511 -232.94140625 252.1953125 C-234.13636719 252.17210937 -235.33132812 252.14890625 -236.5625 252.125 C-237.78066406 252.10695313 -238.99882812 252.08890625 -240.25390625 252.0703125 C-241.16011719 252.04710937 -242.06632812 252.02390625 -243 252 C-243.27585938 252.77730469 -243.55171875 253.55460938 -243.8359375 254.35546875 C-245.48402505 258.09961396 -247.36910713 259.18455357 -251 261 C-255.47210886 261.88194975 -258.31968281 261.35275706 -262.375 259.25 C-265.39536671 256.66111425 -266.69404868 254.77129709 -267.37109375 250.8515625 C-267.49454546 246.71229932 -267.39741725 243.87788099 -264.75 240.5625 C-260.79059938 236.87305851 -259.62113288 235.9738527 -254.125 236.0625 C-249.46198276 236.81206913 -247.17267784 238.51779261 -244 242 C-243.33984375 245.17578125 -243.33984375 245.17578125 -243 248 C-212.87110553 243.79596821 -190.03159352 228.26203211 -171.58837891 204.20336914 C-154.87961038 181.70832238 -142.82598506 156.03493978 -130.50927734 130.96582031 C-107.56666313 84.29483953 -82.62502653 35.10036655 -30.98828125 15.87890625 C-26.03326974 14.29299904 -21.17483083 13.479151 -16 13 C-15.79375 11.948125 -15.5875 10.89625 -15.375 9.8125 C-14.12049188 5.33081518 -11.73490493 3.64555766 -8 1 C-5.13391871 -0.43304064 -3.18699217 -0.30644155 0 0 Z " fill="#0E8E91" transform="translate(422,257)"/>
<path d="M0 0 C14.31550108 6.48932248 24.61024387 32.09465057 30.0078125 45.91015625 C42.82656966 82.19295035 41.16540357 121.96443888 25.01171875 156.83203125 C18.4178159 170.51661517 10.34408583 184.65795125 -1.9921875 193.91015625 C-5.9521875 189.95015625 -9.9121875 185.99015625 -13.9921875 181.91015625 C-11.62423316 177.96356568 -9.32259217 174.80493433 -6.4296875 171.28515625 C15.10411348 143.97282603 21.44275304 109.8293449 17.50390625 75.796875 C13.93163351 51.22355638 1.97462007 28.80158548 -14.9921875 10.91015625 C-12.14154113 7.88134449 -9.17963658 5.13511552 -5.9296875 2.53515625 C-5.27871094 2.01179688 -4.62773437 1.4884375 -3.95703125 0.94921875 C-1.9921875 -0.08984375 -1.9921875 -0.08984375 0 0 Z " fill="#242F3A" transform="translate(387.9921875,288.08984375)"/>
<path d="M0 0 C3.96 0 7.92 0 12 0 C12.33 9.24 12.66 18.48 13 28 C15.64 26.02 18.28 24.04 21 22 C27.47068583 19.84310472 34.04525712 20.16843281 40.25 23 C47.27908901 26.9671329 51.73201809 32.24916003 54.40893555 39.81665039 C55.40172506 43.48394351 55.48922048 47.03079611 55.4375 50.8125 C55.42920166 51.59931152 55.42090332 52.38612305 55.41235352 53.19677734 C55.13601473 62.77324403 52.62205385 70.45165141 45.82421875 77.40625 C39.73751248 82.72397196 33.46484913 82.56954682 25.6171875 82.4296875 C19.63136066 81.71862816 16.14949571 79.14949571 12 75 C11.67 76.98 11.34 78.96 11 81 C7.37 81 3.74 81 0 81 C0 54.27 0 27.54 0 0 Z " fill="#2A3540" transform="translate(1137,343)"/>
<path d="M0 0 C11.98287309 6.11092388 20.1513289 15.04524711 24.71704102 27.74658203 C25.84659799 32.02120725 25.84219476 36.28886782 25.8125 40.6875 C25.80750488 41.65703613 25.80250977 42.62657227 25.79736328 43.62548828 C25.51759437 55.18476794 22.01554297 64.2381195 14.3125 73 C10.92057637 72.40716379 9.1017243 71.23256811 6.5625 68.9375 C5.94890625 68.38964844 5.3353125 67.84179688 4.703125 67.27734375 C4.01476562 66.64505859 4.01476562 66.64505859 3.3125 66 C3.79460937 65.28714844 4.27671875 64.57429688 4.7734375 63.83984375 C11.36489121 53.84504761 13.37086409 46.01712139 12.3125 34 C10.31414935 25.27666093 5.21337893 18.96466798 -1.8125 13.625 C-9.37938014 9.34806774 -17.16507955 8.77322442 -25.6875 10 C-32.89148303 12.40990385 -38.56085646 16.63090387 -42.6875 23 C-43.09871094 23.598125 -43.50992188 24.19625 -43.93359375 24.8125 C-48.53127942 32.95788085 -47.92253536 44.19021829 -46.02734375 53.10546875 C-43.36179389 60.54823785 -38.51698654 66.80666039 -31.4375 70.4375 C-27.30259038 72.28166969 -23.96362316 73.01825019 -19.4375 73.0625 C-14.727367 73.42529909 -12.63298125 74.3880693 -9.5 77.9375 C-6.6875 81.56674473 -6.6875 81.56674473 -6.6875 84 C-17.40744835 86.53194971 -29.30355161 86.02760821 -39.05078125 80.7109375 C-50.73265153 73.36804761 -57.53340715 63.53811544 -60.6875 50 C-62.16483248 36.07321801 -60.09899452 24.65551491 -51.59375 13.28515625 C-39.39238078 -1.34148514 -18.01071286 -7.02512098 0 0 Z " fill="#26323D" transform="translate(567.6875,341)"/>
<path d="M0 0 C2.88984215 1.53266932 4.8948399 3.63266444 7.1796875 5.9609375 C8.07171875 6.85683594 8.96375 7.75273437 9.8828125 8.67578125 C11.9296875 11.0234375 11.9296875 11.0234375 11.9296875 13.0234375 C-1.91263248 23.27879108 -18.44086203 29.97574557 -35.0703125 34.0234375 C-36.06546875 34.28310303 -37.060625 34.54276855 -38.0859375 34.81030273 C-47.71064023 37.13705528 -56.85753812 37.54353846 -66.6953125 37.4609375 C-67.48711914 37.45723145 -68.27892578 37.45352539 -69.09472656 37.44970703 C-93.1468368 37.28961836 -113.87908743 31.62284491 -135.0703125 20.0234375 C-135.0703125 19.3634375 -135.0703125 18.7034375 -135.0703125 18.0234375 C-132.48940483 16.70597417 -129.90580792 15.39434133 -127.3203125 14.0859375 C-126.59070313 13.71275391 -125.86109375 13.33957031 -125.109375 12.95507812 C-124.40039062 12.59736328 -123.69140625 12.23964844 -122.9609375 11.87109375 C-122.31157227 11.54117432 -121.66220703 11.21125488 -120.99316406 10.87133789 C-117.36198694 9.27013447 -115.74525267 8.79597605 -111.8828125 10.09765625 C-110.61021285 10.63122325 -109.33950022 11.16930463 -108.0703125 11.7109375 C-78.59973877 23.35505993 -48.55244544 20.80749142 -19.6484375 9.14355469 C-15.15032642 7.18926173 -10.83952345 4.8990796 -6.63623047 2.37426758 C-2.64628916 0.02995799 -2.64628916 0.02995799 0 0 Z " fill="#242F3A" transform="translate(351.0703125,489.9765625)"/>
<path d="M0 0 C5.63492318 3.61485638 7.98634248 7.78295565 10 14 C10.48585576 17.44734574 10.47088105 20.80934483 10.390625 24.28515625 C10.38496521 25.22685165 10.37930542 26.16854706 10.37347412 27.13877869 C10.35128111 30.11389408 10.30111825 33.08775548 10.25 36.0625 C10.22991288 38.09308143 10.21166601 40.12368194 10.1953125 42.15429688 C10.15147253 47.1033396 10.08256568 52.05145802 10 57 C6.37 57 2.74 57 -1 57 C-1.495 54.03 -1.495 54.03 -2 51 C-2.886875 51.78375 -3.77375 52.5675 -4.6875 53.375 C-10.40733236 58.42973558 -16.31872059 58.4354389 -23.6796875 58.3125 C-29.45301864 57.76912766 -32.18393363 55.03358168 -35.8125 50.875 C-39.57196162 45.9339933 -39.50606622 42.08216619 -39 36 C-37.30570224 31.01123438 -34.43195319 27.78608243 -30 25 C-23.2549887 21.86792346 -17.16913425 20.85229793 -9.75 20.9375 C-9.00492188 20.94201172 -8.25984375 20.94652344 -7.4921875 20.95117188 C-5.6614236 20.96290754 -3.83070127 20.9808415 -2 21 C-2.25662245 19.55989519 -2.53090821 18.1229313 -2.8125 16.6875 C-2.96332031 15.88699219 -3.11414063 15.08648437 -3.26953125 14.26171875 C-4.08740771 11.72936328 -4.96014607 10.66990561 -7 9 C-11.1838696 6.9080652 -16.44651077 7.56117813 -21 8 C-23.92826945 9.06271585 -26.28908333 10.42273939 -29 12 C-29.99 12 -30.98 12 -32 12 C-33.625 9.25 -33.625 9.25 -35 6 C-34.15811584 3.04202863 -33.22793803 2.14106914 -30.6015625 0.515625 C-20.31563029 -3.85792098 -10.30431606 -5.0599723 0 0 Z " fill="#28353F" transform="translate(644,367)"/>
<path d="M0 0 C4.16592291 3.75172025 8.60455238 8.40017727 9.24050903 14.18939209 C9.2338472 15.37519867 9.2338472 15.37519867 9.22705078 16.58496094 C9.22689972 17.48559265 9.22674866 18.38622437 9.22659302 19.31414795 C9.21627045 20.27782288 9.20594788 21.2414978 9.1953125 22.234375 C9.1924826 23.22753723 9.18965271 24.22069946 9.18673706 25.24395752 C9.17555143 28.41276144 9.15044962 31.58128165 9.125 34.75 C9.11496812 36.8997355 9.10584263 39.04947543 9.09765625 41.19921875 C9.07561736 46.46625497 9.04109842 51.7330794 9 57 C5.7 57 2.4 57 -1 57 C-1.495 53.04 -1.495 53.04 -2 49 C-2.680625 49.928125 -3.36125 50.85625 -4.0625 51.8125 C-7.8346901 56.23254546 -11.43458089 57.76940053 -17.12890625 58.28125 C-28.22118551 58.58411087 -28.22118551 58.58411087 -33 55 C-38.62951907 49.21624753 -39.43332181 45.22065712 -39.328125 37.26953125 C-38.94501195 33.45208337 -38.26017151 31.30756146 -35.76171875 28.4296875 C-30.00928579 23.76141596 -23.08837419 20.84936876 -15.671875 20.90234375 C-14.47304687 20.90717773 -14.47304687 20.90717773 -13.25 20.91210938 C-12.425 20.92048828 -11.6 20.92886719 -10.75 20.9375 C-9.90953125 20.94201172 -9.0690625 20.94652344 -8.203125 20.95117188 C-6.13538599 20.96292039 -4.06768376 20.98085478 -2 21 C-2.30035156 19.73027344 -2.60070313 18.46054687 -2.91015625 17.15234375 C-3.079104 16.43812256 -3.24805176 15.72390137 -3.42211914 14.98803711 C-4.15204842 12.47692004 -5.15273904 10.84726096 -7 9 C-12.18112913 7.27295696 -18.21532379 6.90272693 -23.359375 8.9296875 C-24.68011888 9.64964187 -25.97997138 10.4104784 -27.24609375 11.22265625 C-29 12 -29 12 -31.11328125 11.7734375 C-33.95047331 10.61036498 -34.69123896 8.68296013 -36 6 C-36 5.34 -36 4.68 -36 4 C-26.46145056 -3.91496656 -11.00714567 -6.28091363 0 0 Z " fill="#26313C" transform="translate(1112,367)"/>
<path d="M0 0 C10.26609257 -2.03929594 22.44752925 -3.86367032 31.68383789 2.16485596 C40.24434345 8.52581681 47.38245353 16.73173445 54.48864746 24.62432861 C57.43048087 27.86148711 60.45174422 31.02251918 63.46875 34.18945312 C66.8643173 37.76121798 70.25115266 41.33837666 73.57867432 44.97377014 C78.78986072 50.66536823 84.07056995 56.04344144 90 61 C91.76729265 62.61079985 93.38332985 64.23176703 95 66 C95 66.66 95 67.32 95 68 C86.25306236 70.16604146 76.53497539 71.58930043 68 68 C57.87005667 61.58592911 49.68816637 51.54216428 41.94308472 42.51904297 C38.530947 38.5563362 34.93797129 35.09580792 30.95982361 31.70283508 C27.95552171 29.09248247 25.17427589 26.27943396 22.3828125 23.4453125 C21.79958221 22.85829559 21.21635193 22.27127869 20.615448 21.66647339 C18.78280187 19.82177179 16.95349705 17.97381369 15.125 16.125 C12.69296814 13.66640929 10.25765523 11.21113697 7.8203125 8.7578125 C6.98755295 7.91260544 6.98755295 7.91260544 6.13796997 7.05032349 C3.34276325 4.16586894 3.34276325 4.16586894 0 2 C0 1.34 0 0.68 0 0 Z " fill="#232F3A" transform="translate(326,457)"/>
<path d="M0 0 C3.96 0 7.92 0 12 0 C12.01981934 1.24088379 12.03963867 2.48176758 12.06005859 3.76025391 C12.13632081 8.37861901 12.2250063 12.99667752 12.31738281 17.61474609 C12.35558748 19.61077812 12.39045502 21.60687699 12.421875 23.60302734 C12.46771064 26.47778154 12.52567441 29.35207892 12.5859375 32.2265625 C12.59748871 33.11429352 12.60903992 34.00202454 12.62094116 34.91665649 C12.73146216 39.59130827 12.9602002 43.6948992 15 48 C20.38362378 49.79454126 26.57561372 50.07655336 31.8125 47.625 C36.27271529 44.40699534 38.32232935 40.1561473 40 35 C40.90449616 29.17786464 40.79230149 23.25215407 40.8125 17.375 C40.83568518 15.78251845 40.86105876 14.19006718 40.88867188 12.59765625 C40.95100847 8.73165755 40.98374903 4.86645582 41 1 C44.63 1 48.26 1 52 1 C52 20.14 52 39.28 52 59 C48.7 59 45.4 59 42 59 C41.505 55.04 41.505 55.04 41 51 C40.319375 51.7425 39.63875 52.485 38.9375 53.25 C33.15346498 58.82746234 28.97785938 60.37136155 20.9375 60.5 C20.25260498 60.51844971 19.56770996 60.53689941 18.86206055 60.5559082 C12.27868327 60.47563281 8.76070783 57.76070783 4.25 53.25 C-0.28057775 46.70583214 -0.2857945 39.72213209 -0.1953125 32.03125 C-0.1924826 31.11033569 -0.18965271 30.18942139 -0.18673706 29.24060059 C-0.17562775 26.32692948 -0.15054078 23.41357669 -0.125 20.5 C-0.11495823 18.5130253 -0.10583448 16.52604574 -0.09765625 14.5390625 C-0.07571879 9.69258748 -0.04125361 4.84634753 0 0 Z " fill="#27333E" transform="translate(762,365)"/>
<path d="M0 0 C3.63 0 7.26 0 11 0 C11.01981934 1.24088379 11.03963867 2.48176758 11.06005859 3.76025391 C11.13632081 8.37861901 11.2250063 12.99667752 11.31738281 17.61474609 C11.35558748 19.61077812 11.39045502 21.60687699 11.421875 23.60302734 C11.46771064 26.47778154 11.52567441 29.35207892 11.5859375 32.2265625 C11.59748871 33.11429352 11.60903992 34.00202454 11.62094116 34.91665649 C11.73146216 39.59130827 11.9602002 43.6948992 14 48 C18.86674752 49.62224917 24.12686403 49.89988787 29.0703125 48.3515625 C33.94660174 45.88175366 35.81712044 42.78554365 38 38 C39.07200159 33.8456002 39.19707739 29.79051074 39.31640625 25.51171875 C39.33718735 24.80852005 39.35796844 24.10532135 39.37937927 23.3808136 C39.44440115 21.14980183 39.50353776 18.91867931 39.5625 16.6875 C39.60573036 15.16860866 39.64934605 13.64972823 39.69335938 12.13085938 C39.80003334 8.4206888 39.90143221 4.71039579 40 1 C43.63 1 47.26 1 51 1 C51 20.14 51 39.28 51 59 C47.7 59 44.4 59 41 59 C40.505 54.545 40.505 54.545 40 50 C39.154375 51.093125 38.30875 52.18625 37.4375 53.3125 C33.16881511 58.17132566 29.79668889 59.75521323 23.4296875 60.3125 C16.21112127 60.53852164 11.8279523 60.62833 6 56 C0.00565474 49.50612596 -0.284579 43.92731566 -0.1953125 35.44921875 C-0.1924826 34.43527542 -0.18965271 33.42133209 -0.18673706 32.37666321 C-0.17556625 29.14682073 -0.15046711 25.91725829 -0.125 22.6875 C-0.1149662 20.49414464 -0.10584105 18.30078492 -0.09765625 16.10742188 C-0.07563701 10.7381738 -0.04112825 5.36913434 0 0 Z " fill="#24303B" transform="translate(862,365)"/>
<path d="M0 0 C0.99 0.66 1.98 1.32 3 2 C2.5206753 6.31392226 1.2542015 8.16569547 -2 11 C-2.54527344 10.71125 -3.09054687 10.4225 -3.65234375 10.125 C-9.1336187 7.42652618 -13.87336295 5.99256064 -20 7 C-22.20374581 7.95777992 -22.20374581 7.95777992 -24 9 C-24.66923762 12.28743547 -24.66923762 12.28743547 -24 16 C-19.60752145 20.53132127 -12.57557785 22.54584247 -6.83203125 24.7890625 C-1.68470821 26.98998683 1.62920097 28.91709045 4.26953125 34.046875 C6.17215892 39.13411476 5.49803403 43.44195235 3.375 48.25 C1.03475242 52.47406389 -2.05839531 54.99438165 -6.6796875 56.57421875 C-16.01322205 58.28693805 -25.80823457 58.20706949 -34.1171875 53.38671875 C-35.93142219 52.05050856 -37.46519304 50.64581501 -39 49 C-37.62845496 46.04590299 -36.01136276 43.55991624 -34 41 C-31.64309641 41.88383885 -29.36790657 42.79447437 -27.16796875 44.0234375 C-22.13910967 46.82055439 -18.7636689 47.66140463 -13 47 C-9.94350714 46.15163476 -9.94350714 46.15163476 -8 44 C-7.58274322 40.37400578 -7.58274322 40.37400578 -8 37 C-8.72703125 36.63648438 -9.4540625 36.27296875 -10.203125 35.8984375 C-12.32135935 34.83932032 -14.43706862 33.77514402 -16.55078125 32.70703125 C-18.77975875 31.60390196 -21.02667085 30.53598862 -23.29296875 29.51171875 C-34.67209982 24.26742356 -34.67209982 24.26742356 -37 18 C-38.03562852 13.13781186 -37.44104557 9.14221499 -35.125 4.75 C-26.52065501 -7.3347542 -11.90893592 -5.51190615 0 0 Z " fill="#28333E" transform="translate(1241,368)"/>
<path d="M0 0 C3.96 0 7.92 0 12 0 C12 23.43 12 46.86 12 71 C24.21 71 36.42 71 49 71 C49 74.3 49 77.6 49 81 C32.83 81 16.66 81 0 81 C0 54.27 0 27.54 0 0 Z " fill="#28343F" transform="translate(1016,343)"/>
<path d="M0 0 C0.99 0.66 1.98 1.32 3 2 C1.88243734 5.86848614 0.97126708 8.28922757 -2 11 C-2.53367187 10.71125 -3.06734375 10.4225 -3.6171875 10.125 C-9.32272382 7.28210301 -14.61397704 5.77573653 -21 7 C-23.27474872 8.28100782 -23.27474872 8.28100782 -25 10 C-25.75021244 12.45632332 -25.75021244 12.45632332 -25 15 C-21.01438722 18.86130517 -16.5896462 20.57490066 -11.5 22.5 C-5.24284783 24.86669486 -0.01671768 26.94015249 3.8125 32.75 C5.8592148 38.35153524 5.76732722 42.84721102 3.4375 48.25 C0.61044184 53.38918786 -3.53003781 55.17667927 -9 57 C-18.84942466 57.73581614 -27.68472241 58.12432271 -36 52 C-37.02587304 51.02656047 -38.03548863 50.03427163 -39 49 C-37.55746343 45.63408134 -35.66735273 43.48952921 -33 41 C-32.09507812 41.52400391 -32.09507812 41.52400391 -31.171875 42.05859375 C-30.37265625 42.51363281 -29.5734375 42.96867187 -28.75 43.4375 C-27.96109375 43.88996094 -27.1721875 44.34242188 -26.359375 44.80859375 C-21.91114212 47.05480406 -17.97597048 47.34919091 -13 47 C-9.99844249 46.13353917 -9.99844249 46.13353917 -8 44 C-7.58274322 40.37400578 -7.58274322 40.37400578 -8 37 C-8.72703125 36.63648438 -9.4540625 36.27296875 -10.203125 35.8984375 C-12.31927314 34.84036343 -14.43373985 33.77892247 -16.546875 32.71484375 C-18.79492753 31.59844662 -21.05504184 30.5059135 -23.328125 29.44140625 C-24.37484375 28.94511719 -25.4215625 28.44882812 -26.5 27.9375 C-27.4590625 27.49277344 -28.418125 27.04804688 -29.40625 26.58984375 C-33.37389588 24.15786804 -35.53419863 21.39740412 -37 17 C-37.79428244 11.90251647 -37.50028571 8.0211397 -34.5625 3.6875 C-25.31738626 -7.13446725 -11.8137964 -5.46787198 0 0 Z " fill="#26323D" transform="translate(965,368)"/>
<path d="M0 0 C2.4375 2 2.4375 2 3.4375 5 C1.5 8.1875 1.5 8.1875 -0.5625 11 C-1.2225 10.731875 -1.8825 10.46375 -2.5625 10.1875 C-3.5525 9.795625 -4.5425 9.40375 -5.5625 9 C-6.15546875 8.73574219 -6.7484375 8.47148437 -7.359375 8.19921875 C-12.98879673 5.82360278 -18.63130707 4.56062621 -24.546875 6.7265625 C-29.82471537 9.50081193 -33.28949393 13.55445779 -35.5625 19 C-36.50771657 26.59470525 -35.92828136 33.57587727 -31.5625 40 C-28.63316242 43.65952437 -25.909916 44.82055815 -21.27734375 45.4375 C-12.13803514 45.75028917 -7.07832066 44.01054711 0.4375 39 C2.0875 40.98 3.7375 42.96 5.4375 45 C3.94798982 49.46853055 0.39317381 51.78059523 -3.5625 54 C-11.49177324 57.31252026 -22.37290813 57.69607755 -30.5625 55.01953125 C-32.75767248 53.81441122 -34.62227262 52.57877174 -36.5625 51 C-37.39652344 50.40703125 -38.23054687 49.8140625 -39.08984375 49.203125 C-41.92114249 46.68045124 -43.19127097 44.41311375 -44.8125 41 C-45.31265625 39.96875 -45.8128125 38.9375 -46.328125 37.875 C-49.61145935 30.22774025 -49.8452692 21.60488846 -47 13.75 C-43.08794108 5.22827725 -37.14461731 -0.30382009 -28.5625 -4 C-19.17956148 -6.95214699 -8.28535443 -5.12902893 0 0 Z " fill="#27333D" transform="translate(745.5625,369)"/>
<path d="M0 0 C6.01817591 3.87838003 8.27243955 9.03180219 9.8125 15.8125 C10.77979316 22.57189799 9.32330699 27.98749547 5.8125 33.8125 C0.78908628 39.55354425 0.78908628 39.55354425 -3.54296875 40.12109375 C-8.36618118 40.34063307 -12.18530798 40.4779145 -16.125 37.4375 C-21.0954052 32.3476139 -23.33051512 25.83335218 -23.75 18.8125 C-23.4451106 11.90893285 -20.46370184 6.03450656 -15.5625 1.25 C-10.44355986 -1.84830587 -5.58823276 -2.08189063 0 0 Z " fill="#F9FAFA" transform="translate(1171.1875,375.1875)"/>
<path d="M0 0 C3.63 0 7.26 0 11 0 C11.33 23.1 11.66 46.2 12 70 C14.64 70.33 17.28 70.66 20 71 C20 74.63 20 78.26 20 82 C14.09488431 82.26841435 10.06282104 82.4144607 5 79 C0.4806306 74.11419524 -0.12509034 70.67604233 -0.11352539 64.1418457 C-0.11367142 63.44890411 -0.11381744 62.75596252 -0.1139679 62.04202271 C-0.11327163 59.75324363 -0.1054926 57.4645461 -0.09765625 55.17578125 C-0.09579106 53.58823186 -0.09436763 52.00068189 -0.09336853 50.41313171 C-0.08955134 46.2357728 -0.07972786 42.05844869 -0.06866455 37.88110352 C-0.05843328 33.61800609 -0.05386723 29.35490304 -0.04882812 25.09179688 C-0.03810489 16.72784862 -0.02103803 8.36392864 0 0 Z " fill="#22303A" transform="translate(670,343)"/>
<path d="M0 0 C3.63 0 7.26 0 11 0 C11.01213028 1.22695587 11.01213028 1.22695587 11.02450562 2.47869873 C11.10245964 10.18885332 11.18975266 17.89881889 11.28752708 25.60874557 C11.33746426 29.57246147 11.38379444 33.53615105 11.421875 37.5 C11.45876052 41.3256299 11.50512918 45.15103826 11.55806351 48.97647858 C11.57659013 50.43566246 11.59170451 51.8948938 11.60334396 53.35414886 C11.62023638 55.39876471 11.64927753 57.4428751 11.68115234 59.48730469 C11.69447601 60.65090515 11.70779968 61.81450562 11.7215271 63.0133667 C11.99270499 65.92176076 12.30469673 67.63480654 14 70 C17.05908413 70.81584568 17.05908413 70.81584568 20 71 C20 74.3 20 77.6 20 81 C14.74424573 81.33666753 10.37358688 81.61320843 5.5 79.4375 C1.62904155 75.66331551 0.182483 71.77000718 -0.36076355 66.50074768 C-0.35410172 65.27274948 -0.34743988 64.04475128 -0.34057617 62.77954102 C-0.34101425 62.09576889 -0.34145233 61.41199677 -0.34190369 60.70750427 C-0.33983239 58.47266958 -0.31658188 56.23860804 -0.29296875 54.00390625 C-0.28736685 52.44449778 -0.28309956 50.88508399 -0.28010559 49.32566833 C-0.26870349 45.24029723 -0.2392769 41.15525094 -0.20599365 37.07000732 C-0.17519224 32.89372144 -0.16157882 28.71738259 -0.14648438 24.54101562 C-0.11440217 16.36052876 -0.06326272 8.1803049 0 0 Z " fill="#25323C" transform="translate(831,343)"/>
<path d="M0 0 C0.99 0 1.98 0 3 0 C3 43.89 3 87.78 3 133 C2.34 133 1.68 133 1 133 C1 129.04 1 125.08 1 121 C-34.64 121 -70.28 121 -107 121 C-107 119.68 -107 118.36 -107 117 C-71.69 117 -36.38 117 0 117 C0 78.39 0 39.78 0 0 Z " fill="#EDE1B7" transform="translate(275,265)"/>
<path d="M0 0 C12.64089571 -0.69939382 19.25994178 3.37527239 28.73828125 11.28515625 C29.69089844 12.07792969 30.64351562 12.87070312 31.625 13.6875 C32.50414062 14.43386719 33.38328125 15.18023437 34.2890625 15.94921875 C39.2844457 19.72814697 43.68536469 21.36642593 49.875 22.1875 C51.02742187 22.34605469 52.17984375 22.50460937 53.3671875 22.66796875 C54.67042969 22.83232422 54.67042969 22.83232422 56 23 C52.25987977 27.15568914 49.3031086 28.76336041 43.73046875 29.3359375 C31.60203819 29.46965779 26.28846198 26.66103226 17.51953125 18.51171875 C14.19935311 15.20183574 11.1325412 11.69858184 8.05078125 8.16796875 C5.57691842 5.55274233 3.04689066 3.87500964 0 2 C0 1.34 0 0.68 0 0 Z " fill="#148E90" transform="translate(546,401)"/>
<path d="M0 0 C0.99 0 1.98 0 3 0 C5 3 5 3 5 12 C12.59 12.33 20.18 12.66 28 13 C28 14.32 28 15.64 28 17 C-0.38 17 -28.76 17 -58 17 C-58 15.68 -58 14.36 -58 13 C-29.785 12.505 -29.785 12.505 -1 12 C-1 8.7 -1 5.4 -1 2 C-0.67 1.34 -0.34 0.68 0 0 Z " fill="#DACDA1" transform="translate(374,369)"/>
<path d="M0 0 C1.03253906 0.01353516 1.03253906 0.01353516 2.0859375 0.02734375 C3.76577838 0.05067487 5.44543746 0.08653674 7.125 0.125 C6.8736882 6.48318861 6.49648018 11.16277925 2.125 16.125 C-2.05020292 19.8147142 -5.32721833 20.76136985 -10.75390625 20.5234375 C-13.93634526 19.92563128 -15.69078972 18.44572342 -17.875 16.125 C-19.44435594 12.98628812 -19.22701103 10.58644178 -18.875 7.125 C-13.89658919 0.53592687 -7.8387737 -0.19748848 0 0 Z " fill="#F9FAFA" transform="translate(1102.875,395.875)"/>
<path d="M0 0 C0.63503833 6.09636794 0.08039582 10.28251759 -3.5234375 15.3359375 C-6.93753432 19.18357042 -10.59789285 20.17067283 -15.5625 20.5 C-19.02916585 20.35945949 -20.02007955 19.98688682 -23.0625 18 C-25.21051655 14.6740389 -25.75188721 12.81757353 -25.48046875 8.9296875 C-24.62100966 5.4778762 -22.81744221 4.03814968 -20 2 C-13.60090092 -0.79960585 -6.87626884 -0.18612457 0 0 Z " fill="#F9FAFB" transform="translate(642,396)"/>
<path d="M0 0 C0.66 0 1.32 0 2 0 C2 43.56 2 87.12 2 132 C1.34 132 0.68 132 0 132 C0 127.71 0 123.42 0 119 C-35.31 119 -70.62 119 -107 119 C-107 118.67 -107 118.34 -107 118 C-71.69 118 -36.38 118 0 118 C0 79.06 0 40.12 0 0 Z " fill="#AB944B" transform="translate(276,266)"/>
<path d="M0 0 C0.33 0 0.66 0 1 0 C1.33 23.1 1.66 46.2 2 70 C4.64 70.33 7.28 70.66 10 71 C10 74.63 10 78.26 10 82 C7.03 82 4.06 82 1 82 C1 81.34 1 80.68 1 80 C3.31 80 5.62 80 8 80 C8 77.69 8 75.38 8 73 C7.05125 72.896875 6.1025 72.79375 5.125 72.6875 C2 72 2 72 0 69 C-1.36444111 64.33672025 -1.14928176 59.56515931 -1.125 54.75 C-1.12306641 53.79794678 -1.12113281 52.84589355 -1.11914062 51.86499023 C-1.02407001 34.57402302 -0.46683452 17.28405142 0 0 Z " fill="#353E45" transform="translate(680,343)"/>
<path d="M0 0 C2.64151743 1.4289243 3.90371802 2.69920271 6 5 C6.875 8.3125 6.875 8.3125 7 11 C10.63 10.67 14.26 10.34 18 10 C18 10.99 18 11.98 18 13 C18.99 13.66 19.98 14.32 21 15 C16.38 15 11.76 15 7 15 C6.01 17.475 6.01 17.475 5 20 C4.34 20.33 3.68 20.66 3 21 C3.16757813 20.34773437 3.33515625 19.69546875 3.5078125 19.0234375 C5.19100799 11.87340756 5.19100799 11.87340756 3 5 C0.7167664 2.55367829 -0.54890351 2.05883867 -3.875 1.625 C-7.47154906 2.05658589 -9.86694073 3.21985269 -13 5 C-13.99 5.495 -13.99 5.495 -15 6 C-14.00456145 3.375662 -13.02807645 2.02394756 -10.875 0.1875 C-7.02093476 -1.40439651 -3.89745101 -1.24079007 0 0 Z " fill="#399594" transform="translate(172,494)"/>
<path d="M0 0 C-2.41605225 0.81436587 -4.83279998 1.62655397 -7.25 2.4375 C-8.27287109 2.78264648 -8.27287109 2.78264648 -9.31640625 3.13476562 C-18.27000241 6.1337857 -18.27000241 6.1337857 -23.328125 6.09765625 C-24.12734375 6.09443359 -24.9265625 6.09121094 -25.75 6.08789062 C-26.575 6.07951172 -27.4 6.07113281 -28.25 6.0625 C-29.09046875 6.05798828 -29.9309375 6.05347656 -30.796875 6.04882812 C-32.86461401 6.03707961 -34.93231624 6.01914522 -37 6 C-37 5.67 -37 5.34 -37 5 C-33.7 4.67 -30.4 4.34 -27 4 C-27 3.34 -27 2.68 -27 2 C-24.32356043 1.10785348 -22.74615622 0.86459789 -20 0.875 C-19.319375 0.87242187 -18.63875 0.86984375 -17.9375 0.8671875 C-16 1 -16 1 -13 2 C-10.56165849 1.42714588 -10.56165849 1.42714588 -8 0.5 C-3.33333333 -1.11111111 -3.33333333 -1.11111111 0 0 Z " fill="#1B8586" transform="translate(217,502)"/>
<path d="M0 0 C3.171798 1.21992231 4.19812954 2.26238777 6.3125 5.0625 C9.42612201 8.22946029 11.90091878 8.4603893 16.2734375 8.5859375 C18.64133648 8.54625204 21.00887973 8.47497691 23.375 8.375 C24.58800781 8.34792969 25.80101562 8.32085938 27.05078125 8.29296875 C30.03568311 8.22245926 33.01691838 8.12395076 36 8 C36.495 9.485 36.495 9.485 37 11 C11.61643192 12.73640489 11.61643192 12.73640489 5.98046875 8.80859375 C0 2.65300146 0 2.65300146 0 0 Z " fill="#373D43" transform="translate(384,514)"/>
<path d="M0 0 C3.88260845 2.13162817 6.68927281 4.21635314 9 8 C9.29296875 10.578125 9.29296875 10.578125 9.1875 13.25 C9.16042969 14.14203125 9.13335937 15.0340625 9.10546875 15.953125 C9.07066406 16.62859375 9.03585937 17.3040625 9 18 C8.34 18.33 7.68 18.66 7 19 C7.04125 17.96875 7.0825 16.9375 7.125 15.875 C6.97401125 11.19434868 6.41792566 7.75822782 3.4375 4.0625 C-1.29172745 2.00104188 -6.34205122 3.42479328 -11.0625 5.0625 C-11.701875 5.371875 -12.34125 5.68125 -13 6 C-6.54102795 -0.628945 -6.54102795 -0.628945 0 0 Z " fill="#248689" transform="translate(422,257)"/>
<path d="M0 0 C9.24 0 18.48 0 28 0 C28 0.66 28 1.32 28 2 C20.08 2 12.16 2 4 2 C3.67 2.66 3.34 3.32 3 4 C2.01 3.34 1.02 2.68 0 2 C0 1.34 0 0.68 0 0 Z " fill="#363E46" transform="translate(326,457)"/>
<path d="M0 0 C5.28 0.66 10.56 1.32 16 2 C15 6 15 6 12.8125 7.5625 C11.884375 8.036875 10.95625 8.51125 10 9 C8.948125 9.556875 7.89625 10.11375 6.8125 10.6875 C4 12 4 12 2 12 C2 11.34 2 10.68 2 10 C-0.31 10 -2.62 10 -5 10 C-5 9.67 -5 9.34 -5 9 C-4.29875 8.97421875 -3.5975 8.9484375 -2.875 8.921875 C3.75833827 8.52531673 8.26206125 7.35615286 14 4 C13.15695312 3.87882812 12.31390625 3.75765625 11.4453125 3.6328125 C10.34960938 3.46523438 9.25390625 3.29765625 8.125 3.125 C7.03445313 2.96257812 5.94390625 2.80015625 4.8203125 2.6328125 C2 2 2 2 0 0 Z " fill="#C6EAEA" transform="translate(587,421)"/>
<path d="M0 0 C0.66 0 1.32 0 2 0 C2.02578125 0.84304688 2.0515625 1.68609375 2.078125 2.5546875 C2.13484375 3.65039062 2.1915625 4.74609375 2.25 5.875 C2.29640625 6.96554687 2.3428125 8.05609375 2.390625 9.1796875 C2.69102366 12.08949528 2.69102366 12.08949528 4.84765625 13.33984375 C7.55948627 14.17160287 10.18101812 14.68677979 13 15 C13.33 14.67 13.66 14.34 14 14 C15.66617115 13.95936168 17.33388095 13.957279 19 14 C18 15.5 18 15.5 16 17 C11.16450114 17.55489331 8.96780878 17.50182678 4.625 15.25 C1.51862161 12.58738995 0.14493173 10.75077524 -0.1953125 6.640625 C-0.17210937 5.85171875 -0.14890625 5.0628125 -0.125 4.25 C-0.10695312 3.45078125 -0.08890625 2.6515625 -0.0703125 1.828125 C-0.04710937 1.22484375 -0.02390625 0.6215625 0 0 Z " fill="#1E8889" transform="translate(155,501)"/>
<path d="M0 0 C1.3271261 3.9813783 1.06915913 7.85045227 1 12 C-4 11 -9 10 -14 9 C-9.96707255 6.7655402 -6.55032566 6.45503257 -2 6 C-1.34 4.02 -0.68 2.04 0 0 Z " fill="#238B8F" transform="translate(408,264)"/>
<path d="M0 0 C1.67542976 0.28604898 3.34385343 0.61781233 5 1 C5 1.66 5 2.32 5 3 C6.32 3 7.64 3 9 3 C9 4.32 9 5.64 9 7 C6.03 6.67 3.06 6.34 0 6 C-0.38218767 4.34385343 -0.71395102 2.67542976 -1 1 C-0.67 0.67 -0.34 0.34 0 0 Z " fill="#F8F0CF" transform="translate(310,299)"/>
<path d="M0 0 C5.50588235 0.61176471 5.50588235 0.61176471 7.75 2.375 C10.54855101 6.01311631 11.29433789 8.01591739 11.3125 12.5625 C11.32925781 13.53316406 11.34601563 14.50382812 11.36328125 15.50390625 C11.18345703 16.73947266 11.18345703 16.73947266 11 18 C10.01 18.66 9.02 19.32 8 20 C8.04640625 19.19175781 8.0928125 18.38351562 8.140625 17.55078125 C8.48651403 10.96397174 8.48651403 10.96397174 6.25 4.9375 C4.21965682 3.18914893 2.21762609 1.5048177 0 0 Z " fill="#D0F1F2" transform="translate(422,257)"/>
<path d="M0 0 C0.66 0 1.32 0 2 0 C2.66 1.32 3.32 2.64 4 4 C11.88673264 4.41074089 11.88673264 4.41074089 19.4375 2.4375 C23.04334639 0.98250935 23.58368829 0.86623502 27 2 C18.68201934 5.64972621 11.04795562 6.73582611 2 7 C1.34 4.69 0.68 2.38 0 0 Z " fill="#CEF7F7" transform="translate(177,498)"/>
<path d="M0 0 C0.99 0.33 1.98 0.66 3 1 C2.21625 1.763125 1.4325 2.52625 0.625 3.3125 C-3.14261318 7.16981826 -4.25194853 9.4026042 -4.625 14.6875 C-4.69976563 15.68136719 -4.77453125 16.67523438 -4.8515625 17.69921875 C-4.90054688 18.45847656 -4.94953125 19.21773438 -5 20 C-5.66 20 -6.32 20 -7 20 C-7.32429071 13.92255186 -7.49866785 9.24800177 -4 4 C-1.8125 1.625 -1.8125 1.625 0 0 Z " fill="#313B43" transform="translate(612,393)"/>
<path d="M0 0 C0.99 0.33 1.98 0.66 3 1 C2.34 2.98 1.68 4.96 1 7 C0.01 7 -0.98 7 -2 7 C-2 8.32 -2 9.64 -2 11 C-3.3125 12.75 -3.3125 12.75 -5 14 C-5.99 14 -6.98 14 -8 14 C-7.34 12.02 -6.68 10.04 -6 8 C-5.01 8 -4.02 8 -3 8 C-3 6.68 -3 5.36 -3 4 C-2.34 4 -1.68 4 -1 4 C-0.67 2.68 -0.34 1.36 0 0 Z " fill="#C8B986" transform="translate(363,433)"/>
<path d="M0 0 C0.33 0.99 0.66 1.98 1 3 C-0.73285833 4.73285833 -3.20305365 4.5801871 -5.5625 4.9375 C-10.4689501 5.71713902 -15.20505858 6.70905423 -20 8 C-20 7.34 -20 6.68 -20 6 C-16.54941314 3.69960876 -14.05904498 3.5261725 -10 3 C-9.67 2.67 -9.34 2.34 -9 2 C-7.48071962 1.92820036 -5.95832518 1.91607993 -4.4375 1.9375 C-3.61121094 1.94652344 -2.78492188 1.95554687 -1.93359375 1.96484375 C-1.29550781 1.97644531 -0.65742188 1.98804688 0 2 C0 1.34 0 0.68 0 0 Z " fill="#D1F5F6" transform="translate(406,267)"/>
<path d="M0 0 C2.30556834 1.48667726 4.01906854 3.06859182 6 5 C3 5 3 5 1.1875 3.5 C-1.7732489 1.46977219 -3.46266039 1.57551925 -7 2 C-10.21712945 3.35814007 -10.21712945 3.35814007 -13 5 C-13.99 5.495 -13.99 5.495 -15 6 C-14.00456145 3.375662 -13.02807645 2.02394756 -10.875 0.1875 C-7.03867887 -1.39706742 -3.87715106 -1.27726809 0 0 Z " fill="#2E8C8D" transform="translate(172,494)"/>
<path d="M0 0 C0.66 0.33 1.32 0.66 2 1 C-1.3 7.27 -4.6 13.54 -8 20 C-8.33 20 -8.66 20 -9 20 C-9.61528766 14.92387682 -7.61658349 12.17017994 -5 8 C-4.34 8 -3.68 8 -3 8 C-3 6.68 -3 5.36 -3 4 C-2.34 4 -1.68 4 -1 4 C-0.67 2.68 -0.34 1.36 0 0 Z " fill="#D8F7F7" transform="translate(310,349)"/>
<path d="M0 0 C0.66 0.33 1.32 0.66 2 1 C-1.3 7.27 -4.6 13.54 -8 20 C-9.07349791 15.70600835 -8.79682816 14.80504787 -7 11 C-6.34 11 -5.68 11 -5 11 C-4.7834375 10.1028125 -4.7834375 10.1028125 -4.5625 9.1875 C-4.1127561 7.43849596 -3.57107659 5.71322977 -3 4 C-2.34 4 -1.68 4 -1 4 C-0.67 2.68 -0.34 1.36 0 0 Z " fill="#D5F6F6" transform="translate(276,416)"/>
<path d="M0 0 C0.66 0 1.32 0 2 0 C0.40376856 4.39383706 -1.78024333 8.28995807 -4.125 12.3125 C-4.49753906 12.95767578 -4.87007813 13.60285156 -5.25390625 14.26757812 C-6.16632213 15.84675945 -7.08275509 17.42361864 -8 19 C-9.08784335 15.68604014 -9.07262544 15.16419665 -7.5625 11.75 C-7.046875 10.8425 -6.53125 9.935 -6 9 C-5.34 9 -4.68 9 -4 9 C-4 7.68 -4 6.36 -4 5 C-3.34 5 -2.68 5 -2 5 C-2 4.01 -2 3.02 -2 2 C-1.34 2 -0.68 2 0 2 C0 1.34 0 0.68 0 0 Z " fill="#D2F5F6" transform="translate(321,330)"/>
<path d="M0 0 C0.99 0.33 1.98 0.66 3 1 C3 1.66 3 2.32 3 3 C7.455 3.99 7.455 3.99 12 5 C12 4.34 12 3.68 12 3 C13.32 3 14.64 3 16 3 C16 2.34 16 1.68 16 1 C17.32 1.33 18.64 1.66 20 2 C15.71553766 5.51545628 12.6963139 6.64312358 7.125 6.3984375 C3.93011173 5.79939595 2.15723553 4.36600025 0 2 C0 1.34 0 0.68 0 0 Z " fill="#2A8A8C" transform="translate(409,276)"/>
<path d="M0 0 C2.70126561 1.44067499 4.11128057 3.54339079 5.875 6 C2.875 6 2.875 6 0.4375 4.9375 C-2.41715641 3.89311351 -3.30798726 4.22289304 -6.125 5 C-6.785 4.34 -7.445 3.68 -8.125 3 C-2.845 0 -2.845 0 0 0 Z " fill="#2E363E" transform="translate(351.125,490)"/>
<path d="M0 0 C1.09814453 3.74902344 1.09814453 3.74902344 0.21484375 6.0078125 C-0.20667969 6.70648438 -0.62820313 7.40515625 -1.0625 8.125 C-1.75085938 9.28708984 -1.75085938 9.28708984 -2.453125 10.47265625 C-2.96359375 11.30667969 -3.4740625 12.14070313 -4 13 C-4.55171875 13.92683594 -5.1034375 14.85367187 -5.671875 15.80859375 C-7.10391969 18.21238305 -8.54724252 20.60869129 -10 23 C-10.33 22.34 -10.66 21.68 -11 21 C-10.10375977 18.84521484 -10.10375977 18.84521484 -8.69140625 16.2109375 C-8.19189453 15.26992188 -7.69238281 14.32890625 -7.17773438 13.359375 C-6.64470703 12.37453125 -6.11167969 11.3896875 -5.5625 10.375 C-5.03333984 9.38242187 -4.50417969 8.38984375 -3.95898438 7.3671875 C-2.6463946 4.90755982 -1.32648654 2.45215293 0 0 Z " fill="#25878A" transform="translate(316,341)"/>
<path d="M0 0 C-5.63038104 2.13506804 -10.79131743 2.39962656 -16.7578125 2.65625 C-19.74116558 2.97255731 -21.48074938 3.44583544 -24 5 C-23.67 3.68 -23.34 2.36 -23 1 C-22.04738281 0.93941406 -21.09476563 0.87882812 -20.11328125 0.81640625 C-18.23189453 0.69072266 -18.23189453 0.69072266 -16.3125 0.5625 C-15.07113281 0.48128906 -13.82976562 0.40007812 -12.55078125 0.31640625 C-1.8984375 -0.6328125 -1.8984375 -0.6328125 0 0 Z " fill="#DDF9F9" transform="translate(202,508)"/>
<path d="M0 0 C0.97710938 -0.01417969 1.95421875 -0.02835937 2.9609375 -0.04296875 C5.625 0.1875 5.625 0.1875 8.625 2.1875 C6.89526886 3.91723114 4.59983037 3.35958117 2.25 3.375 C1.27289062 3.38917969 0.29578125 3.40335937 -0.7109375 3.41796875 C-3.375 3.1875 -3.375 3.1875 -6.375 1.1875 C-4.64526886 -0.54223114 -2.34983037 0.01541883 0 0 Z " fill="#303A43" transform="translate(726.375,363.8125)"/>
<path d="M0 0 C0.98871094 -0.01417969 1.97742188 -0.02835937 2.99609375 -0.04296875 C5.5625 0.1875 5.5625 0.1875 7.5625 2.1875 C5.82400372 3.92599628 3.4838363 3.35966296 1.125 3.375 C0.13628906 3.38917969 -0.85242188 3.40335937 -1.87109375 3.41796875 C-4.4375 3.1875 -4.4375 3.1875 -6.4375 1.1875 C-4.69900372 -0.55099628 -2.3588363 0.01533704 0 0 Z " fill="#2F3A43" transform="translate(948.4375,363.8125)"/>
<path d="M0 0 C0.33 0.66 0.66 1.32 1 2 C0.28714844 2.37511719 -0.42570312 2.75023437 -1.16015625 3.13671875 C-6.73575285 6.11587333 -11.95571902 9.18876548 -17 13 C-17.66 12.67 -18.32 12.34 -19 12 C-13.041169 7.00552088 -7.08350383 3.20901948 0 0 Z " fill="#298A8F" transform="translate(379,278)"/>
<path d="M0 0 C4 3 8 6 12 9 C11.01 10.485 11.01 10.485 10 12 C6.37 8.7 2.74 5.4 -1 2 C-0.67 1.34 -0.34 0.68 0 0 Z " fill="#D2EDEE" transform="translate(570,406)"/>
<path d="M0 0 C0.99 0.33 1.98 0.66 3 1 C1.41856529 2.43958847 -0.16522779 3.87658645 -1.75 5.3125 C-2.63171875 6.11300781 -3.5134375 6.91351563 -4.421875 7.73828125 C-6.55449328 9.60916911 -8.70187943 11.34084286 -11 13 C-10.75 11.125 -10.75 11.125 -10 9 C-8.67532254 8.3162955 -7.34136367 7.65035814 -6 7 C-5.3162955 5.67532254 -4.65035814 4.34136367 -4 3 C-2.0625 1.1875 -2.0625 1.1875 0 0 Z " fill="#D8F5F6" transform="translate(355,291)"/>
<path d="M0 0 C1.62463842 -0.05395478 3.24978541 -0.09277195 4.875 -0.125 C5.77992188 -0.14820313 6.68484375 -0.17140625 7.6171875 -0.1953125 C10 0 10 0 12 2 C9.69 2.33 7.38 2.66 5 3 C5.66 3.33 6.32 3.66 7 4 C6.67 4.66 6.34 5.32 6 6 C3.96166576 4.7260411 1.96147874 3.38938077 0 2 C0 1.34 0 0.68 0 0 Z " fill="#429597" transform="translate(546,401)"/>
<path d="M0 0 C-0.50603992 2.16874252 -0.99983813 3.99967627 -2 6 C-2.66 6 -3.32 6 -4 6 C-3.67 4.68 -3.34 3.36 -3 2 C-3.66 1.67 -4.32 1.34 -5 1 C-5.66 2.32 -6.32 3.64 -7 5 C-7 3.35 -7 1.7 -7 0 C-4.3333581 -1.33332095 -2.83319697 -0.67102033 0 0 Z " fill="#F6F0D1" transform="translate(368,432)"/>
<path d="M0 0 C0.66 0 1.32 0 2 0 C3.66666667 1.66666667 5.33333333 3.33333333 7 5 C8.093125 5.721875 9.18625 6.44375 10.3125 7.1875 C11.199375 7.785625 12.08625 8.38375 13 9 C13 9.66 13 10.32 13 11 C7.71860321 9.51460715 3.71945899 5.91327696 0 2 C0 1.34 0 0.68 0 0 Z " fill="#29898A" transform="translate(563,417)"/>
<path d="M0 0 C0.99 0 1.98 0 3 0 C3 2.97 3 5.94 3 9 C2.01 9 1.02 9 0 9 C0 6.03 0 3.06 0 0 Z " fill="#BAA462" transform="translate(375,391)"/>
<path d="M0 0 C0.33 0.66 0.66 1.32 1 2 C0.40832031 2.12117188 -0.18335938 2.24234375 -0.79296875 2.3671875 C-5.03803585 3.26744643 -9.02439661 4.20456621 -13 6 C-8.3374496 1.21475091 -6.68645054 -0.14535762 0 0 Z " fill="#2F8B8F" transform="translate(422,257)"/>
<path d="M0 0 C0.33 0.66 0.66 1.32 1 2 C0.22265625 3.9453125 0.22265625 3.9453125 -0.9375 6.125 C-1.31777344 6.84945313 -1.69804687 7.57390625 -2.08984375 8.3203125 C-2.54037109 9.15175781 -2.54037109 9.15175781 -3 10 C-3.66 10 -4.32 10 -5 10 C-5.33 11.32 -5.66 12.64 -6 14 C-6.66 14 -7.32 14 -8 14 C-6.6744419 10.37723685 -5.05653045 7.36494652 -2.875 4.1875 C-2.33617187 3.39730469 -1.79734375 2.60710937 -1.2421875 1.79296875 C-0.83226562 1.20128906 -0.42234375 0.60960937 0 0 Z " fill="#D8F6F6" transform="translate(278,442)"/>
<path d="M0 0 C0 0.99 0 1.98 0 3 C-1.96875 4.60546875 -1.96875 4.60546875 -4.5 6.1875 C-5.3353125 6.71730469 -6.170625 7.24710937 -7.03125 7.79296875 C-7.6809375 8.19128906 -8.330625 8.58960938 -9 9 C-9.99 8.34 -10.98 7.68 -12 7 C-11.21753906 6.57847656 -10.43507812 6.15695312 -9.62890625 5.72265625 C-8.61699219 5.17480469 -7.60507813 4.62695312 -6.5625 4.0625 C-5.55316406 3.51722656 -4.54382813 2.97195313 -3.50390625 2.41015625 C-1.13329507 1.22300532 -1.13329507 1.22300532 0 0 Z " fill="#25878B" transform="translate(221,490)"/>
<path d="M0 0 C0.66 0 1.32 0 2 0 C2.66 2.97 3.32 5.94 4 9 C3.01 9 2.02 9 1 9 C0.63877119 7.68942607 0.28619689 6.37646376 -0.0625 5.0625 C-0.35833984 3.96615234 -0.35833984 3.96615234 -0.66015625 2.84765625 C-0.77230469 2.23792969 -0.88445312 1.62820313 -1 1 C-0.67 0.67 -0.34 0.34 0 0 Z " fill="#BBA560" transform="translate(371,357)"/>
<path d="M0 0 C0.33 0.66 0.66 1.32 1 2 C-2.75 7.75 -2.75 7.75 -5 10 C-5.99 9.67 -6.98 9.34 -8 9 C-5.36 6.03 -2.72 3.06 0 0 Z " fill="#DBF6F7" transform="translate(361,301)"/>
<path d="M0 0 C2.31 0 4.62 0 7 0 C7.33 1.32 7.66 2.64 8 4 C5.36 3.67 2.72 3.34 0 3 C0 2.01 0 1.02 0 0 Z " fill="#C4AF6F" transform="translate(298,297)"/>
<path d="M0 0 C0.99 0.33 1.98 0.66 3 1 C2.113125 1.5775 1.22625 2.155 0.3125 2.75 C-2.59042244 4.68068476 -5.30768649 6.78280064 -8 9 C-6.99023354 5.36484074 -6.05356282 4.04330611 -3.0625 1.625 C-2.051875 1.08875 -1.04125 0.5525 0 0 Z " fill="#212B33" transform="translate(1214,366)"/>
<path d="M0 0 C0.66 0.33 1.32 0.66 2 1 C0.02 4.96 -1.96 8.92 -4 13 C-5.3340394 8.99788181 -4.40012984 6.92036356 -3 3 C-1.375 1.0625 -1.375 1.0625 0 0 Z " fill="#1D8687" transform="translate(302,393)"/>
<path d="M0 0 C2.64 0 5.28 0 8 0 C8 0.99 8 1.98 8 3 C5.69 3 3.38 3 1 3 C0.67 2.01 0.34 1.02 0 0 Z " fill="#BBA565" transform="translate(284,296)"/>
<path d="M0 0 C0.33 0.99 0.66 1.98 1 3 C-2.63 2.67 -6.26 2.34 -10 2 C-6.37149856 -0.41900096 -4.13918156 -1.65567262 0 0 Z " fill="#C7ECED" transform="translate(408,275)"/>
<path d="M0 0 C0.88336837 2.4667645 1.1312406 3.63859372 0.22265625 6.140625 C-0.16019531 6.83671875 -0.54304688 7.5328125 -0.9375 8.25 C-1.31777344 8.95640625 -1.69804687 9.6628125 -2.08984375 10.390625 C-2.39019531 10.92171875 -2.69054687 11.4528125 -3 12 C-3.66 12 -4.32 12 -5 12 C-3.68938409 7.76570244 -2.05643741 3.92592596 0 0 Z " fill="#2A8C8E" transform="translate(300,371)"/>
<path d="M0 0 C0.66 0.33 1.32 0.66 2 1 C2 3.97 2 6.94 2 10 C1.01 9.34 0.02 8.68 -1 8 C-1.25660094 4.92078868 -1.39431504 2.78863007 0 0 Z " fill="#303B44" transform="translate(424,389)"/>
<path d="M0 0 C2.64 0.33 5.28 0.66 8 1 C8 1.99 8 2.98 8 4 C2.25 3.125 2.25 3.125 0 2 C0 1.34 0 0.68 0 0 Z " fill="#B9A25B" transform="translate(311,301)"/>
<path d="M0 0 C4.29 0 8.58 0 13 0 C12.67 0.66 12.34 1.32 12 2 C9.4375 2.625 9.4375 2.625 7 3 C7 2.34 7 1.68 7 1 C4.69 1 2.38 1 0 1 C0 0.67 0 0.34 0 0 Z " fill="#C1E4E4" transform="translate(582,430)"/>
<path d="M0 0 C0.99 0 1.98 0 3 0 C2.125 5.75 2.125 5.75 1 8 C0.34 8 -0.32 8 -1 8 C-0.67 5.36 -0.34 2.72 0 0 Z " fill="#B49B55" transform="translate(373,406)"/>
<path d="M0 0 C0.99 0.33 1.98 0.66 3 1 C4.1875 4.0625 4.1875 4.0625 5 7 C4.01 7.33 3.02 7.66 2 8 C1.34 5.36 0.68 2.72 0 0 Z " fill="#B49C55" transform="translate(365,345)"/>
<path d="M0 0 C0.99 0 1.98 0 3 0 C1.8141763 3.37503669 0.72426311 5.64722731 -2 8 C-2 6.35 -2 4.7 -2 3 C-1.34 3 -0.68 3 0 3 C0 2.01 0 1.02 0 0 Z " fill="#208B8C" transform="translate(335,329)"/>
<path d="M0 0 C0.66 0 1.32 0 2 0 C1.1875 3.4375 1.1875 3.4375 0 7 C-0.99 7.33 -1.98 7.66 -3 8 C-1.125 1.125 -1.125 1.125 0 0 Z " fill="#AD9752" transform="translate(370,420)"/>
<path d="M0 0 C2.31 0.66 4.62 1.32 7 2 C7 2.99 7 3.98 7 5 C4.36 4.01 1.72 3.02 -1 2 C-0.67 1.34 -0.34 0.68 0 0 Z " fill="#DEE1E4" transform="translate(1229,389)"/>
<path d="M0 0 C0.99 0.33 1.98 0.66 3 1 C3 3.31 3 5.62 3 8 C2.34 8 1.68 8 1 8 C0.67 5.36 0.34 2.72 0 0 Z " fill="#B09A59" transform="translate(374,371)"/>
<path d="M0 0 C1.14926266 0.95421808 2.29430541 1.91352045 3.4375 2.875 C4.07558594 3.40867187 4.71367187 3.94234375 5.37109375 4.4921875 C7 6 7 6 8 8 C4.18315774 6.44499019 1.80804268 3.96404505 -1 1 C-0.67 0.67 -0.34 0.34 0 0 Z " fill="#E9ECED" transform="translate(408,509)"/>
<path d="M0 0 C0.99 0.33 1.98 0.66 3 1 C1.60203108 3.79593783 -0.13474989 3.95173777 -3 5 C-3.99 5.495 -3.99 5.495 -5 6 C-3.63016497 2.83884224 -3.0109362 2.0072908 0 0 Z " fill="#168587" transform="translate(162,494)"/>
<path d="M0 0 C0.99 0.33 1.98 0.66 3 1 C1.02 5.455 1.02 5.455 -1 10 C-2.31223496 6.06329512 -1.24296256 3.87511856 0 0 Z " fill="#268A8C" transform="translate(317,360)"/>
<path d="M0 0 C0.66 0.99 1.32 1.98 2 3 C0.68 5.31 -0.64 7.62 -2 10 C-3 8 -3 8 -2.44140625 6.0546875 C-2.15136719 5.33539063 -1.86132812 4.61609375 -1.5625 3.875 C-1.27503906 3.15054687 -0.98757813 2.42609375 -0.69140625 1.6796875 C-0.46324219 1.12539063 -0.23507812 0.57109375 0 0 Z " fill="#1B8888" transform="translate(326,344)"/>
</svg>
